<svg id="visual" viewBox="0 0 1500 800" width="1500" height="800" xmlns="http://www.w3.org/2000/svg" xmlns:xlink="http://www.w3.org/1999/xlink" version="1.1"><rect x="0" y="0" width="1500" height="800" fill="#ffffff"></rect><defs><linearGradient id="grad1_0" x1="46.7%" y1="0%" x2="100%" y2="100%"><stop offset="12.5%" stop-color="#ffffff" stop-opacity="1"></stop><stop offset="87.5%" stop-color="#ffffff" stop-opacity="1"></stop></linearGradient></defs><defs><linearGradient id="grad2_0" x1="0%" y1="0%" x2="53.3%" y2="100%"><stop offset="12.5%" stop-color="#ffffff" stop-opacity="1"></stop><stop offset="87.5%" stop-color="#ffffff" stop-opacity="1"></stop></linearGradient></defs><g transform="translate(1500, 0)"><path d="M0 560C-71.6 551.8 -143.2 543.6 -214.3 517.4C-285.4 491.2 -356 447 -384.7 384.7C-413.3 322.4 -400 242 -422.2 174.9C-444.4 107.8 -502.2 53.9 -560 0L0 0Z" fill="#f2f2fc"></path></g><g transform="translate(0, 800)"><path d="M0 -560C66.4 -525.5 132.8 -491 189 -456.4C245.3 -421.8 291.3 -387.2 350 -350C408.8 -312.8 480.3 -273.1 517.4 -214.3C554.5 -155.5 557.2 -77.8 560 0L0 0Z" fill="#f2f2fc"></path></g></svg>