<svg xmlns="http://www.w3.org/2000/svg" version="1.1" xmlns:xlink="http://www.w3.org/1999/xlink" xmlns:svgjs="http://svgjs.com/svgjs" width="1440" height="560" preserveAspectRatio="none" viewBox="0 0 1440 560"><g mask="url(&quot;#SvgjsMask1002&quot;)" fill="none"><path d="M25.59 659.8C211.71 656.96 364.94 434.54 733.9 430.32 1102.86 426.1 1259.21 247.03 1442.21 245.52" stroke="rgba(110, 87, 224, 1)" stroke-width="2"></path><path d="M395.72 636.15C547.35 599.29 595.03 198.31 832.73 190.46 1070.44 182.61 1051.24 260.46 1269.75 260.46 1488.25 260.46 1596.11 190.68 1706.76 190.46" stroke="rgba(110, 87, 224, 1)" stroke-width="2"></path><path d="M370.37 651.2C536.2 650.21 678.15 505.52 1016.46 500.9 1354.76 496.28 1489.22 253.31 1662.54 248.9" stroke="rgba(110, 87, 224, 1)" stroke-width="2"></path><path d="M593.37 621.76C700.17 611.74 664.71 394.33 952.93 387.6 1241.15 380.87 1487.11 215.22 1672.05 214" stroke="rgba(110, 87, 224, 1)" stroke-width="2"></path><path d="M274.35 582.97C435.49 548.13 493.5 133.68 750.2 126.4 1006.9 119.12 988.12 196.4 1226.04 196.4 1463.97 196.4 1581.65 126.59 1701.89 126.4" stroke="rgba(110, 87, 224, 1)" stroke-width="2"></path></g><defs><mask id="SvgjsMask1002"><rect width="1440" height="560" fill="#ffffff"></rect></mask></defs></svg>