<svg id="visual" viewBox="0 0 900 450" width="900" height="450" xmlns="http://www.w3.org/2000/svg" xmlns:xlink="http://www.w3.org/1999/xlink" version="1.1"><path d="M0 310L21.5 311.5C43 313 86 316 128.8 316.8C171.7 317.7 214.3 316.3 257.2 322.2C300 328 343 341 385.8 334C428.7 327 471.3 300 514.2 297.5C557 295 600 317 642.8 318.7C685.7 320.3 728.3 301.7 771.2 291.7C814 281.7 857 280.3 878.5 279.7L900 279L900 451L878.5 451C857 451 814 451 771.2 451C728.3 451 685.7 451 642.8 451C600 451 557 451 514.2 451C471.3 451 428.7 451 385.8 451C343 451 300 451 257.2 451C214.3 451 171.7 451 128.8 451C86 451 43 451 21.5 451L0 451Z" fill="#7e68ea" stroke-linecap="round" stroke-linejoin="miter"></path></svg>